<svg width="100" height="100" viewBox="0 0 100 100" xmlns="http://www.w3.org/2000/svg">
  <defs>
    <linearGradient id="bgGradient" x1="0%" y1="0%" x2="100%" y2="100%">
      <stop offset="0%" style="stop-color:#8B5CF6;stop-opacity:1" />
      <stop offset="100%" style="stop-color:#A855F7;stop-opacity:1" />
    </linearGradient>
  </defs>
  
  <!-- Background circle -->
  <circle cx="50" cy="50" r="50" fill="url(#bgGradient)"/>
  
  <!-- Face -->
  <circle cx="50" cy="40" r="15" fill="#FED7AA"/>
  
  <!-- Hair -->
  <path d="M35,30 Q50,20 65,30 Q65,25 50,22 Q35,25 35,30" fill="#92400E"/>
  
  <!-- Eyes -->
  <circle cx="45" cy="38" r="2" fill="#1F2937"/>
  <circle cx="55" cy="38" r="2" fill="#1F2937"/>
  
  <!-- Nose -->
  <circle cx="50" cy="42" r="1" fill="#F59E0B"/>
  
  <!-- Mouth -->
  <path d="M47,45 Q50,47 53,45" stroke="#1F2937" stroke-width="1" fill="none"/>
  
  <!-- Body -->
  <rect x="40" y="55" width="20" height="30" fill="#1F2937" rx="3"/>
  
  <!-- Blockchain symbol on shirt -->
  <g transform="translate(50, 70)">
    <rect x="-6" y="-3" width="4" height="4" fill="#8B5CF6" rx="1"/>
    <rect x="-1" y="-3" width="4" height="4" fill="#8B5CF6" rx="1"/>
    <rect x="4" y="-3" width="4" height="4" fill="#8B5CF6" rx="1"/>
    <line x1="-4" y1="-1" x2="-3" y2="-1" stroke="#A855F7" stroke-width="1"/>
    <line x1="1" y1="-1" x2="2" y2="-1" stroke="#A855F7" stroke-width="1"/>
    <line x1="6" y1="-1" x2="7" y2="-1" stroke="#A855F7" stroke-width="1"/>
  </g>
  
  <!-- Arms -->
  <rect x="32" y="58" width="8" height="15" fill="#FED7AA" rx="4"/>
  <rect x="60" y="58" width="8" height="15" fill="#FED7AA" rx="4"/>
</svg> 