<svg width="100" height="100" viewBox="0 0 100 100" xmlns="http://www.w3.org/2000/svg">
  <defs>
    <linearGradient id="bgGradient" x1="0%" y1="0%" x2="100%" y2="100%">
      <stop offset="0%" style="stop-color:#3B82F6;stop-opacity:1" />
      <stop offset="100%" style="stop-color:#60A5FA;stop-opacity:1" />
    </linearGradient>
  </defs>
  
  <!-- Background circle -->
  <circle cx="50" cy="50" r="50" fill="url(#bgGradient)"/>
  
  <!-- Face -->
  <circle cx="50" cy="40" r="15" fill="#FED7AA"/>
  
  <!-- Hair -->
  <path d="M32,28 Q50,15 68,28 Q68,35 50,30 Q32,35 32,28" fill="#7C2D12"/>
  
  <!-- Eyes -->
  <circle cx="45" cy="38" r="2" fill="#1F2937"/>
  <circle cx="55" cy="38" r="2" fill="#1F2937"/>
  
  <!-- Nose -->
  <circle cx="50" cy="42" r="1" fill="#F59E0B"/>
  
  <!-- Mouth -->
  <path d="M47,45 Q50,47 53,45" stroke="#1F2937" stroke-width="1" fill="none"/>
  
  <!-- Body -->
  <rect x="40" y="55" width="20" height="30" fill="#FFFFFF" rx="3"/>
  
  <!-- React logo on shirt -->
  <g transform="translate(50, 70)">
    <circle cx="0" cy="0" r="6" fill="none" stroke="#61DAFB" stroke-width="1"/>
    <ellipse cx="0" cy="0" rx="8" ry="3" fill="none" stroke="#61DAFB" stroke-width="1" transform="rotate(60)"/>
    <ellipse cx="0" cy="0" rx="8" ry="3" fill="none" stroke="#61DAFB" stroke-width="1" transform="rotate(-60)"/>
    <circle cx="0" cy="0" r="1.5" fill="#61DAFB"/>
  </g>
  
  <!-- Arms -->
  <rect x="32" y="58" width="8" height="15" fill="#FED7AA" rx="4"/>
  <rect x="60" y="58" width="8" height="15" fill="#FED7AA" rx="4"/>
</svg> 