<svg width="572" height="178" viewBox="0 0 572 178" fill="none" xmlns="http://www.w3.org/2000/svg">
<path d="M119.779 62.1508C120.965 65.9672 123.087 69.0022 126.141 71.2482C129.194 73.4967 132.927 74.621 137.339 74.621C140.563 74.621 143.701 74.113 146.757 73.0944C149.81 72.0759 152.228 70.6344 154.01 68.7675L162.535 80.3481C159.227 83.5739 155.367 85.9282 150.955 87.4109C146.543 88.8936 141.708 89.6363 136.447 89.6363C131.187 89.6363 126.331 88.7879 121.878 87.0912C117.425 85.3944 113.585 83.0634 110.362 80.0928C107.136 77.1248 104.635 73.5406 102.856 69.34C101.074 65.142 100.184 60.5804 100.184 55.6604C100.184 50.7404 101.03 46.3723 102.729 42.3007C104.426 38.229 106.757 34.7092 109.728 31.7386C112.696 28.7706 116.28 26.4576 120.48 24.8047C124.678 23.1493 129.24 22.3241 134.16 22.3241C139.08 22.3241 143.595 23.1312 147.713 24.7429C151.826 26.3545 155.39 28.5824 158.402 31.424C161.411 34.2683 163.765 37.6385 165.464 41.5399C167.161 45.444 168.009 49.727 168.009 54.3918C168.009 55.7507 167.924 57.0632 167.754 58.337C167.584 59.6083 167.414 60.8822 167.246 62.156H119.782L119.779 62.1508ZM149.936 49.6806C149.596 45.8617 148.046 42.8086 145.292 40.5188C142.535 38.229 138.992 37.0841 134.665 37.0841C130.761 37.0841 127.476 38.229 124.805 40.5188C122.133 42.8086 120.328 45.8643 119.397 49.6806H149.936Z" fill="white"/>
<path d="M211.905 37.4658C206.475 37.4658 202.127 39.1418 198.863 42.4915C195.596 45.8437 193.963 50.3176 193.963 55.9157C193.963 61.5139 195.619 66.011 198.927 69.4045C202.235 72.7979 206.689 74.4947 212.287 74.4947C215.255 74.4947 218.182 73.9428 221.067 72.8417C223.95 71.7407 226.327 70.2967 228.192 68.5148L235.064 80.477C231.926 83.1923 228.192 85.397 223.867 87.0938C219.541 88.7905 215.343 89.6388 211.268 89.6388C206.093 89.6388 201.32 88.7905 196.952 87.0938C192.581 85.397 188.809 83.066 185.627 80.0954C182.445 77.1274 179.964 73.587 178.182 69.4689C176.4 65.356 175.511 60.8383 175.511 55.9157C175.511 50.9932 176.403 46.6069 178.182 42.4915C179.964 38.3786 182.424 34.8149 185.562 31.8031C188.7 28.7939 192.452 26.4576 196.823 24.8047C201.191 23.1493 205.964 22.3241 211.139 22.3241C215.381 22.3241 219.347 22.8966 223.037 24.0415C226.727 25.1864 230.056 26.8625 233.027 29.0672L227.428 44.0825C225.647 42.133 223.421 40.542 220.747 39.3094C218.076 38.082 215.126 37.4632 211.903 37.4632L211.905 37.4658Z" fill="white"/>
<path d="M260.515 62.1508C261.701 65.9672 263.823 69.0022 266.876 71.2482C269.929 73.4967 273.663 74.621 278.075 74.621C281.298 74.621 284.437 74.113 287.492 73.0944C290.545 72.0759 292.964 70.6344 294.746 68.7675L303.271 80.3481C299.962 83.5739 296.102 85.9282 291.69 87.4109C287.278 88.8936 282.443 89.6363 277.183 89.6363C271.922 89.6363 267.067 88.7879 262.614 87.0912C258.16 85.3944 254.321 83.0634 251.098 80.0928C247.872 77.1248 245.371 73.5406 243.589 69.34C241.807 65.142 240.917 60.5804 240.917 55.6604C240.917 50.7404 241.766 46.3723 243.462 42.3007C245.159 38.229 247.49 34.7092 250.461 31.7386C253.429 28.7706 257.013 26.4576 261.214 24.8047C265.414 23.1493 269.973 22.3241 274.893 22.3241C279.813 22.3241 284.328 23.1312 288.446 24.7429C292.559 26.3545 296.123 28.5824 299.135 31.424C302.144 34.2683 304.498 37.6385 306.197 41.5399C307.894 45.444 308.743 49.727 308.743 54.3918C308.743 55.7507 308.657 57.0632 308.487 58.337C308.317 59.6083 308.147 60.8822 307.979 62.156H260.515V62.1508ZM290.672 49.6806C290.331 45.8617 288.781 42.8086 286.028 40.5188C283.271 38.229 279.728 37.0841 275.401 37.0841C271.497 37.0841 268.212 38.229 265.54 40.5188C262.869 42.8086 261.064 45.8643 260.133 49.6806H290.672Z" fill="white"/>
<path d="M337.241 88.365H319.299V23.5954H337.241V29.3225C340.124 27.1178 343.391 25.4004 347.04 24.1704C350.686 22.943 354.549 22.3241 358.621 22.3241C362.692 22.3241 366.7 22.9817 370.137 24.2968C373.572 25.6144 376.498 27.4581 378.917 29.833C381.336 32.2079 383.2 35.0728 384.515 38.4224C385.83 41.7746 386.488 45.5291 386.488 49.6832V88.3676H368.672V50.7018C368.672 46.5476 367.483 43.3011 365.108 40.9675C362.734 38.6339 359.425 37.4683 355.183 37.4683C349.585 37.4683 345.194 39.2708 342.012 42.8757C338.83 46.4832 337.239 51.3825 337.239 57.5738V88.3676L337.241 88.365Z" fill="white"/>
<path d="M423.94 88.6925H405.603V66.1142L405.575 64.3143V38.4817H394.123V23.5928H405.575V5.65081H423.517V23.5928H441.203V38.4817H423.517V63.93L423.94 88.6899V88.6925Z" fill="white"/>
<path d="M497.956 23.5954L496.938 38.8659C496.004 38.6106 494.71 38.4018 493.057 38.229C491.401 38.0588 489.895 37.9737 488.539 37.9737C482.941 37.9737 478.678 39.4796 475.752 42.4915C472.825 45.5033 471.36 49.5981 471.36 54.7708V88.365H453.418V23.5954H471.36V29.4488C473.48 27.2441 476.046 25.5035 479.06 24.2323C482.069 22.9585 485.274 22.3241 488.668 22.3241C490.024 22.3241 491.551 22.4324 493.25 22.6413C494.947 22.8527 496.515 23.1725 497.959 23.5954H497.956Z" fill="white"/>
<path d="M571.251 23.5954V88.365H553.309V83.6564C550.846 85.5233 548.028 86.988 544.846 88.0452C541.664 89.1051 538.247 89.6363 534.601 89.6363C529.766 89.6363 525.354 88.8085 521.367 87.1556C517.378 85.5002 513.944 83.1691 511.061 80.1573C508.175 77.148 505.927 73.5844 504.315 69.4689C502.703 65.356 501.899 60.8383 501.899 55.9157C501.899 50.9932 502.703 46.6069 504.315 42.4915C505.927 38.3786 508.175 34.8149 511.061 31.8031C513.944 28.7939 517.402 26.4576 521.432 24.8047C525.46 23.1493 529.851 22.3241 534.601 22.3241C538.247 22.3241 541.664 22.8553 544.846 23.9151C548.028 24.9775 550.846 26.4396 553.309 28.3039V23.5954H571.251ZM536.893 37.4658C531.886 37.4658 527.899 39.1418 524.931 42.4915C521.96 45.8437 520.478 50.3176 520.478 55.9157C520.478 61.5139 521.942 66.0316 524.869 69.4689C527.796 72.9036 531.803 74.6236 536.893 74.6236C541.983 74.6236 545.756 72.9062 548.727 69.4689C551.694 66.0342 553.18 61.5165 553.18 55.9157C553.18 50.315 551.694 45.8437 548.727 42.4915C545.756 39.1418 541.811 37.4658 536.893 37.4658Z" fill="white"/>
<path d="M50.8269 71.7639C50.8295 71.2043 51.2575 70.7402 51.8145 70.6912C57.0156 70.2296 61.0356 68.3266 63.867 64.9821C67.147 61.1039 68.7921 54.5542 68.7921 45.3331C68.7921 36.112 66.92 29.5236 63.181 25.55C59.4369 21.5789 54.3235 19.5959 47.8435 19.5959L24.3858 19.1911C23.7798 19.1808 23.2822 19.6681 23.2822 20.2741V37.097C23.2822 37.6901 22.8051 38.1749 22.2094 38.18L1.84355 38.4095C1.24015 38.4172 0.747637 37.9299 0.747637 37.3265V1.92212C0.747637 1.32388 1.23244 0.839111 1.83067 0.839111H51.2679C58.6607 0.839111 64.9784 1.95823 70.2258 4.19389C75.4733 6.43213 79.7409 9.53677 83.0286 13.5027C86.3164 17.4737 88.7119 22.1771 90.2152 27.6077C91.7237 33.0383 92.4767 38.951 92.4767 45.3331C92.4767 51.7152 91.6567 57.6124 90.0141 62.9992C88.3716 68.3859 85.8136 73.0609 82.3428 77.032C78.8771 80.9979 74.4702 84.1077 69.1351 86.3408C64.5838 88.249 58.1218 89.4996 51.8841 89.7987C51.2601 89.8297 50.7367 89.3346 50.7392 88.7106L50.8243 71.7639H50.8269ZM25.6931 78.7545L23.6251 38.5926Z" fill="white"/>
<path d="M40.2753 70.9361C40.8735 70.9361 41.3583 71.4209 41.3583 72.0192V88.4991C41.3583 89.0973 40.8735 89.5821 40.2753 89.5821H23.7953C23.1971 89.5821 22.7123 89.0973 22.7123 88.4991V74.3399L22.7329 74.1697C22.6685 71.4106 21.0001 71.0599 20.2729 71.0367L20.1234 71.0315H2.11435C1.51611 71.0315 1.03131 70.5468 1.03131 69.9486V48.6724C1.03131 48.0742 1.51611 47.5894 2.11435 47.5894H23.3905C23.9887 47.5894 24.4735 48.0742 24.4735 48.6724V68.1126C24.4735 68.1126 24.1022 70.8562 27.6014 70.9361H40.2753Z" fill="white"/>
<path d="M74.1686 153.493C74.9561 153.493 75.6767 153.401 76.3302 153.217C77.0005 153.017 77.5786 152.708 78.0645 152.29C78.5505 151.856 78.9275 151.297 79.1956 150.612C79.4805 149.91 79.6229 149.059 79.6229 148.057C79.6229 147.021 79.4805 146.161 79.1956 145.476C78.9275 144.775 78.5505 144.215 78.0645 143.798C77.5786 143.38 77.0005 143.079 76.3302 142.896C75.6767 142.712 74.9561 142.62 74.1686 142.62C73.381 142.62 72.6521 142.712 71.9818 142.896C71.3115 143.063 70.725 143.363 70.2224 143.798C69.7364 144.215 69.351 144.775 69.0661 145.476C68.798 146.161 68.664 147.021 68.664 148.057C68.664 149.059 68.798 149.91 69.0661 150.612C69.351 151.297 69.7364 151.856 70.2224 152.29C70.725 152.708 71.3115 153.017 71.9818 153.217C72.6521 153.401 73.381 153.493 74.1686 153.493Z" fill="white"/>
<path d="M133.452 153.368H128.802V142.745H133.326C134.834 142.745 136.024 143.188 136.895 144.073C137.783 144.942 138.227 146.269 138.227 148.057C138.227 149.86 137.809 151.196 136.971 152.065C136.133 152.933 134.96 153.368 133.452 153.368Z" fill="white"/>
<path d="M227.623 147.054H223.299V142.645L227.572 142.62C227.924 142.62 228.268 142.654 228.603 142.72C228.938 142.77 229.24 142.879 229.508 143.046C229.776 143.196 229.994 143.413 230.161 143.697C230.329 143.965 230.413 144.307 230.413 144.725C230.413 145.242 230.329 145.651 230.161 145.952C230.011 146.253 229.801 146.487 229.533 146.654C229.282 146.821 228.988 146.929 228.653 146.979C228.318 147.029 227.975 147.054 227.623 147.054Z" fill="white"/>
<path d="M228.125 153.493H223.299V149.109H228.125C228.511 149.109 228.879 149.151 229.231 149.234C229.583 149.318 229.902 149.459 230.186 149.66C230.471 149.844 230.698 150.077 230.865 150.361C231.033 150.645 231.116 150.988 231.116 151.389C231.116 151.856 231.033 152.232 230.865 152.516C230.698 152.783 230.471 152.992 230.186 153.142C229.902 153.293 229.583 153.393 229.231 153.443C228.879 153.476 228.511 153.493 228.125 153.493Z" fill="white"/>
<path d="M288.342 153.368H292.992C294.5 153.368 295.673 152.933 296.511 152.065C297.349 151.196 297.767 149.86 297.767 148.057C297.767 146.269 297.323 144.942 296.435 144.073C295.564 143.188 294.374 142.745 292.866 142.745H288.342V153.368Z" fill="white"/>
<path d="M350.22 141.894L352.91 150.261H347.229L349.944 141.894H350.22Z" fill="white"/>
<path d="M372.014 147.054H376.337C376.689 147.054 377.032 147.029 377.367 146.979C377.702 146.929 377.996 146.821 378.247 146.654C378.515 146.487 378.725 146.253 378.875 145.952C379.043 145.651 379.127 145.242 379.127 144.725C379.127 144.307 379.043 143.965 378.875 143.697C378.708 143.413 378.49 143.196 378.222 143.046C377.954 142.879 377.652 142.77 377.317 142.72C376.982 142.654 376.638 142.62 376.287 142.62L372.014 142.645V147.054Z" fill="white"/>
<path d="M372.014 153.493H376.84C377.225 153.493 377.594 153.476 377.945 153.443C378.297 153.393 378.616 153.293 378.901 153.142C379.185 152.992 379.412 152.783 379.579 152.516C379.747 152.232 379.831 151.856 379.831 151.389C379.831 150.988 379.747 150.645 379.579 150.361C379.412 150.077 379.185 149.844 378.901 149.66C378.616 149.459 378.297 149.318 377.945 149.234C377.594 149.151 377.225 149.109 376.84 149.109H372.014V153.493Z" fill="white"/>
<path d="M410.012 153.493C410.799 153.493 411.52 153.401 412.173 153.217C412.843 153.017 413.422 152.708 413.908 152.29C414.393 151.856 414.77 151.297 415.039 150.612C415.323 149.91 415.466 149.059 415.466 148.057C415.466 147.021 415.323 146.161 415.039 145.476C414.77 144.775 414.393 144.215 413.908 143.798C413.422 143.38 412.843 143.079 412.173 142.896C411.52 142.712 410.799 142.62 410.012 142.62C409.224 142.62 408.495 142.712 407.825 142.896C407.154 143.063 406.568 143.363 406.065 143.798C405.579 144.215 405.194 144.775 404.909 145.476C404.641 146.161 404.507 147.021 404.507 148.057C404.507 149.059 404.641 149.91 404.909 150.612C405.194 151.297 405.579 151.856 406.065 152.29C406.568 152.708 407.154 153.017 407.825 153.217C408.495 153.401 409.224 153.493 410.012 153.493Z" fill="white"/>
<path d="M506.816 141.894L509.505 150.261H503.825L506.539 141.894H506.816Z" fill="white"/>
<path fill-rule="evenodd" clip-rule="evenodd" d="M538.344 119.043H0.582031V144.088C0.582031 162.354 15.3892 177.161 33.6547 177.161H571.416V152.115C571.416 133.85 556.609 119.043 538.344 119.043ZM30.349 140.04V156.073H42.7156V153.368H33.6418V149.259H41.8107V146.879H33.6418V142.745H42.3888V140.04H30.349ZM37.8142 135.63L34.6974 138.537H36.9596L41.5091 135.63H37.8142ZM57.3052 152.917C56.4003 153.301 55.4117 153.493 54.3392 153.493C53.5517 153.493 52.8228 153.401 52.1525 153.217C51.4822 153.017 50.8957 152.708 50.393 152.29C49.9071 151.856 49.5217 151.297 49.2368 150.612C48.9687 149.91 48.8346 149.059 48.8346 148.057C48.8346 147.021 48.9687 146.161 49.2368 145.476C49.5217 144.775 49.9071 144.215 50.393 143.798C50.8957 143.363 51.4822 143.063 52.1525 142.896C52.8228 142.712 53.5517 142.62 54.3392 142.62C55.5792 142.62 56.6601 142.862 57.5817 143.347C58.5033 143.814 59.1401 144.641 59.492 145.827H62.9104C62.726 144.825 62.3741 143.956 61.8547 143.221C61.352 142.47 60.7236 141.852 59.9695 141.367C59.2322 140.866 58.3776 140.499 57.4057 140.265C56.4506 140.015 55.4284 139.889 54.3392 139.889C53.1495 139.889 52.0184 140.04 50.946 140.34C49.8735 140.624 48.9352 141.092 48.1309 141.743C47.3265 142.395 46.6898 143.238 46.2206 144.274C45.7514 145.309 45.5168 146.57 45.5168 148.057C45.5168 149.51 45.7514 150.754 46.2206 151.789C46.6898 152.825 47.3265 153.677 48.1309 154.345C48.9352 154.996 49.8735 155.48 50.946 155.798C52.0184 156.098 53.1495 156.249 54.3392 156.249C55.2609 156.249 56.1657 156.149 57.0538 155.948C57.9587 155.748 58.7966 155.43 59.5674 154.996C60.3382 154.562 61.0001 154.002 61.5531 153.318C62.1228 152.633 62.5249 151.806 62.7595 150.837L59.316 150.812C58.8803 151.831 58.2101 152.533 57.3052 152.917ZM65.3461 148.057C65.3461 146.57 65.5807 145.309 66.0499 144.274C66.5191 143.238 67.1558 142.395 67.9602 141.743C68.7645 141.092 69.7029 140.616 70.7753 140.315C71.8478 140.015 72.9789 139.864 74.1686 139.864C75.3583 139.864 76.481 140.015 77.5367 140.315C78.6091 140.616 79.5391 141.092 80.3267 141.743C81.131 142.395 81.7678 143.238 82.237 144.274C82.7062 145.309 82.9408 146.57 82.9408 148.057C82.9408 149.51 82.7062 150.754 82.237 151.789C81.7678 152.825 81.131 153.677 80.3267 154.345C79.5391 154.996 78.6091 155.48 77.5367 155.798C76.481 156.098 75.3583 156.249 74.1686 156.249C72.9789 156.249 71.8478 156.098 70.7753 155.798C69.7029 155.48 68.7645 154.996 67.9602 154.345C67.1558 153.677 66.5191 152.825 66.0499 151.789C65.5807 150.754 65.3461 149.51 65.3461 148.057ZM86.7531 140.04V156.073H98.4912V153.368H90.0709V140.04H86.7531ZM102.094 156.073V140.04H114.134V142.745H105.387V146.879H113.556V149.259H105.387V153.368H114.461V156.073H102.094ZM125.509 140.04V156.073H133.603C134.876 156.073 136.007 155.881 136.996 155.497C137.985 155.113 138.814 154.57 139.484 153.869C140.154 153.167 140.657 152.324 140.992 151.338C141.344 150.353 141.52 149.259 141.52 148.057C141.52 146.854 141.353 145.76 141.017 144.775C140.682 143.789 140.188 142.946 139.535 142.244C138.881 141.543 138.068 141 137.096 140.616C136.124 140.232 135.002 140.04 133.728 140.04H125.509ZM148.181 140.04V149.91C148.181 151.23 148.508 152.157 149.161 152.691C149.815 153.226 150.77 153.493 152.027 153.493C153.334 153.493 154.297 153.226 154.917 152.691C155.554 152.157 155.872 151.23 155.872 149.91V140.04H159.115V149.986C159.115 150.921 158.981 151.773 158.713 152.541C158.445 153.309 158.017 153.969 157.431 154.52C156.861 155.071 156.124 155.497 155.219 155.798C154.331 156.098 153.258 156.249 152.002 156.249C150.778 156.249 149.723 156.098 148.835 155.798C147.946 155.48 147.209 155.046 146.623 154.495C146.036 153.944 145.6 153.284 145.316 152.516C145.031 151.748 144.888 150.904 144.888 149.986V140.04H148.181ZM177.881 153.944H177.68L172.754 140.04H169.285L175.066 156.073H180.546L184.844 143.622L189.267 156.073H194.722L200.327 140.04H197.034L192.083 153.944H191.882L186.955 140.04H182.833L177.881 153.944ZM203.685 156.073V140.04H215.724V142.745H206.977V146.879H215.146V149.259H206.977V153.368H216.051V156.073H203.685ZM220.007 140.04V156.073H228.201C228.938 156.073 229.675 156.015 230.413 155.898C231.167 155.781 231.837 155.572 232.424 155.272C233.027 154.954 233.513 154.52 233.881 153.969C234.25 153.418 234.434 152.708 234.434 151.839C234.434 151.105 234.325 150.503 234.108 150.036C233.89 149.551 233.555 149.176 233.102 148.908C232.666 148.624 232.122 148.424 231.468 148.307C230.815 148.19 230.052 148.123 229.181 148.107V147.981C230.656 147.948 231.762 147.639 232.499 147.054C233.236 146.453 233.613 145.618 233.63 144.549C233.63 143.681 233.454 142.963 233.102 142.395C232.767 141.81 232.315 141.342 231.745 140.992C231.192 140.641 230.563 140.399 229.86 140.265C229.173 140.115 228.477 140.04 227.773 140.04H220.007ZM245.803 156.073V140.04H257.842V142.745H249.095V146.879H257.264V149.259H249.095V153.368H258.169V156.073H245.803ZM265.845 142.745V156.073H269.138V142.745H274.466V140.065H260.516V142.745H265.845ZM285.049 156.073V140.04H293.268C294.542 140.04 295.664 140.232 296.636 140.616C297.608 141 298.421 141.543 299.074 142.244C299.728 142.946 300.222 143.789 300.557 144.775C300.893 145.76 301.06 146.854 301.06 148.057C301.06 149.259 300.884 150.353 300.532 151.338C300.197 152.324 299.694 153.167 299.024 153.869C298.354 154.57 297.524 155.113 296.536 155.497C295.547 155.881 294.416 156.073 293.143 156.073H285.049ZM304.906 140.04V156.073H317.272V153.368H308.199V149.259H316.367V146.879H308.199V142.745H316.946V140.04H304.906ZM328.296 156.073V140.04H331.614V153.368H340.034V156.073H328.296ZM346.626 152.315H353.488L354.644 156.073H358.138L352.935 140.04H347.455L342.077 156.073H345.445L346.626 152.315ZM368.721 156.073V140.04H376.488C377.191 140.04 377.887 140.115 378.574 140.265C379.278 140.399 379.906 140.641 380.459 140.992C381.029 141.342 381.481 141.81 381.816 142.395C382.168 142.963 382.344 143.681 382.344 144.549C382.327 145.618 381.95 146.453 381.213 147.054C380.476 147.639 379.37 147.948 377.895 147.981V148.107C378.767 148.123 379.529 148.19 380.183 148.307C380.836 148.424 381.381 148.624 381.816 148.908C382.269 149.176 382.604 149.551 382.822 150.036C383.04 150.503 383.148 151.105 383.148 151.839C383.148 152.708 382.964 153.418 382.595 153.969C382.227 154.52 381.741 154.954 381.138 155.272C380.551 155.572 379.881 155.781 379.127 155.898C378.39 156.015 377.652 156.073 376.915 156.073H368.721ZM387.399 140.04V156.073H399.137V153.368H390.717V140.04H387.399ZM401.189 148.057C401.189 146.57 401.424 145.309 401.893 144.274C402.362 143.238 402.999 142.395 403.803 141.743C404.607 141.092 405.546 140.616 406.618 140.315C407.691 140.015 408.822 139.864 410.012 139.864C411.201 139.864 412.324 140.015 413.38 140.315C414.452 140.616 415.382 141.092 416.17 141.743C416.974 142.395 417.611 143.238 418.08 144.274C418.549 145.309 418.784 146.57 418.784 148.057C418.784 149.51 418.549 150.754 418.08 151.789C417.611 152.825 416.974 153.677 416.17 154.345C415.382 154.996 414.452 155.48 413.38 155.798C412.324 156.098 411.201 156.249 410.012 156.249C408.822 156.249 407.691 156.098 406.618 155.798C405.546 155.48 404.607 154.996 403.803 154.345C402.999 153.677 402.362 152.825 401.893 151.789C401.424 150.754 401.189 149.51 401.189 148.057ZM433.304 152.917C432.399 153.301 431.41 153.493 430.338 153.493C429.55 153.493 428.821 153.401 428.151 153.217C427.481 153.017 426.894 152.708 426.391 152.29C425.905 151.856 425.52 151.297 425.235 150.612C424.967 149.91 424.833 149.059 424.833 148.057C424.833 147.021 424.967 146.161 425.235 145.476C425.52 144.775 425.905 144.215 426.391 143.798C426.894 143.363 427.481 143.063 428.151 142.896C428.821 142.712 429.55 142.62 430.338 142.62C431.578 142.62 432.659 142.862 433.58 143.347C434.502 143.814 435.139 144.641 435.49 145.827H438.909C438.724 144.825 438.373 143.956 437.853 143.221C437.35 142.47 436.722 141.852 435.968 141.367C435.231 140.866 434.376 140.499 433.404 140.265C432.449 140.015 431.427 139.889 430.338 139.889C429.148 139.889 428.017 140.04 426.944 140.34C425.872 140.624 424.934 141.092 424.129 141.743C423.325 142.395 422.688 143.238 422.219 144.274C421.75 145.309 421.515 146.57 421.515 148.057C421.515 149.51 421.75 150.754 422.219 151.789C422.688 152.825 423.325 153.677 424.129 154.345C424.934 154.996 425.872 155.48 426.944 155.798C428.017 156.098 429.148 156.249 430.338 156.249C431.259 156.249 432.164 156.149 433.052 155.948C433.957 155.748 434.795 155.43 435.566 154.996C436.337 154.562 436.999 154.002 437.552 153.318C438.121 152.633 438.523 151.806 438.758 150.837L435.314 150.812C434.879 151.831 434.208 152.533 433.304 152.917ZM450.51 147.23H453.627L457.397 156.073H453.954L450.535 148.407H449.278L446.212 151.439V156.073H442.944V140.04H446.212V147.981L454.155 140.04H457.875L450.51 147.23ZM471.152 152.917C470.247 153.301 469.258 153.493 468.186 153.493C467.398 153.493 466.669 153.401 465.999 153.217C465.329 153.017 464.742 152.708 464.24 152.29C463.754 151.856 463.368 151.297 463.083 150.612C462.815 149.91 462.681 149.059 462.681 148.057C462.681 147.021 462.815 146.161 463.083 145.476C463.368 144.775 463.754 144.215 464.24 143.798C464.742 143.363 465.329 143.063 465.999 142.896C466.669 142.712 467.398 142.62 468.186 142.62C469.426 142.62 470.507 142.862 471.428 143.347C472.35 143.814 472.987 144.641 473.339 145.827H476.757C476.573 144.825 476.221 143.956 475.701 143.221C475.199 142.47 474.57 141.852 473.816 141.367C473.079 140.866 472.224 140.499 471.252 140.265C470.297 140.015 469.275 139.889 468.186 139.889C466.996 139.889 465.865 140.04 464.793 140.34C463.72 140.624 462.782 141.092 461.977 141.743C461.173 142.395 460.536 143.238 460.067 144.274C459.598 145.309 459.363 146.57 459.363 148.057C459.363 149.51 459.598 150.754 460.067 151.789C460.536 152.825 461.173 153.677 461.977 154.345C462.782 154.996 463.72 155.48 464.793 155.798C465.865 156.098 466.996 156.249 468.186 156.249C469.107 156.249 470.012 156.149 470.9 155.948C471.805 155.748 472.643 155.43 473.414 154.996C474.185 154.562 474.847 154.002 475.4 153.318C475.969 152.633 476.372 151.806 476.606 150.837L473.163 150.812C472.727 151.831 472.057 152.533 471.152 152.917ZM480.793 156.073V140.04H484.085V146.704H491.927V140.04H495.245V156.073H491.927V149.284H484.085V156.073H480.793ZM503.221 152.315H510.083L511.239 156.073H514.733L509.53 140.04H504.051L498.672 156.073H502.04L503.221 152.315ZM521.491 140.04V156.073H518.198V140.04H521.491ZM536.572 156.073H541.649V140.04H538.357V153.042L531.57 140.04H526.442V156.073H529.76V143.096L536.572 156.073Z" fill="white"/>
</svg>
