<svg width="258" height="41" viewBox="0 0 258 41" fill="none" xmlns="http://www.w3.org/2000/svg">
<path d="M54.139 28.4081C54.6732 30.1268 55.629 31.4937 57.0041 32.5053C58.3791 33.5179 60.0607 34.0243 62.0477 34.0243C63.4994 34.0243 64.9128 33.7955 66.2889 33.3368C67.664 32.878 68.7533 32.2289 69.5558 31.3881L73.3952 36.6036C71.9052 38.0565 70.1667 39.1168 68.1796 39.7845C66.1926 40.4523 64.015 40.7868 61.6459 40.7868C59.2768 40.7868 57.09 40.4047 55.0844 39.6405C53.0787 38.8764 51.3495 37.8265 49.8978 36.4887C48.445 35.152 47.3185 33.5377 46.5172 31.6459C45.7147 29.7552 45.314 27.7008 45.314 25.485C45.314 23.2691 45.6949 21.3018 46.4603 19.4681C47.2244 17.6343 48.2743 16.0491 49.6121 14.7112C50.9488 13.3745 52.5631 12.3328 54.4549 11.5884C56.3456 10.8428 58.4 10.4712 60.6158 10.4712C62.8316 10.4712 64.8652 10.8347 66.7198 11.5605C68.5721 12.2864 70.1771 13.2898 71.5335 14.5696C72.8888 15.8505 73.9491 17.3684 74.7145 19.1255C75.4786 20.8837 75.8607 22.8127 75.8607 24.9136C75.8607 25.5256 75.8224 26.1167 75.7457 26.6904C75.6691 27.263 75.5924 27.8367 75.5169 28.4104H54.1402L54.139 28.4081ZM67.7209 22.7918C67.5676 21.0719 66.8696 19.6969 65.6293 18.6656C64.3878 17.6343 62.7922 17.1187 60.8434 17.1187C59.0852 17.1187 57.6056 17.6343 56.4025 18.6656C55.1993 19.6969 54.3864 21.0731 53.9672 22.7918H67.7209Z" fill="white"/>
<path d="M95.6301 17.2906C93.1844 17.2906 91.2263 18.0454 89.7561 19.554C88.2847 21.0638 87.5495 23.0787 87.5495 25.5999C87.5495 28.1212 88.2951 30.1466 89.7851 31.6749C91.2751 33.2032 93.2808 33.9674 95.802 33.9674C97.1387 33.9674 98.4568 33.7189 99.7564 33.223C101.055 32.7271 102.125 32.0767 102.965 31.2742L106.06 36.6617C104.647 37.8846 102.965 38.8775 101.018 39.6417C99.0689 40.4058 97.1782 40.7879 95.3433 40.7879C93.0125 40.7879 90.8628 40.4058 88.8955 39.6417C86.9271 38.8775 85.228 37.8277 83.795 36.4898C82.3619 35.1531 81.2446 33.5586 80.4422 31.7039C79.6397 29.8516 79.239 27.8169 79.239 25.5999C79.239 23.3829 79.6408 21.4075 80.4422 19.554C81.2446 17.7017 82.3526 16.0967 83.7659 14.7403C85.1793 13.385 86.869 12.3328 88.8375 11.5884C90.8048 10.8428 92.9544 10.4712 95.2852 10.4712C97.1956 10.4712 98.9817 10.729 100.644 11.2446C102.305 11.7603 103.805 12.5151 105.143 13.5081L102.621 20.2706C101.819 19.3926 100.817 18.676 99.6124 18.1209C98.4092 17.5681 97.0806 17.2894 95.629 17.2894L95.6301 17.2906Z" fill="white"/>
<path d="M117.523 28.4081C118.057 30.1268 119.013 31.4937 120.388 32.5053C121.763 33.5179 123.444 34.0243 125.431 34.0243C126.883 34.0243 128.296 33.7955 129.672 33.3368C131.047 32.878 132.137 32.2289 132.939 31.3881L136.779 36.6036C135.289 38.0565 133.55 39.1168 131.563 39.7845C129.576 40.4523 127.399 40.7868 125.029 40.7868C122.66 40.7868 120.473 40.4047 118.468 39.6405C116.462 38.8764 114.733 37.8265 113.281 36.4887C111.828 35.152 110.702 33.5377 109.9 31.6459C109.097 29.7552 108.696 27.7008 108.696 25.485C108.696 23.2691 109.078 21.3018 109.843 19.4681C110.607 17.6343 111.657 16.0491 112.994 14.7112C114.331 13.3745 115.945 12.3328 117.837 11.5884C119.729 10.8428 121.782 10.4712 123.998 10.4712C126.214 10.4712 128.247 10.8347 130.102 11.5605C131.954 12.2864 133.559 13.2898 134.916 14.5696C136.271 15.8505 137.331 17.3684 138.097 19.1255C138.861 20.8837 139.243 22.8127 139.243 24.9136C139.243 25.5256 139.205 26.1167 139.128 26.6904C139.051 27.263 138.975 27.8367 138.899 28.4104H117.523V28.4081ZM131.104 22.7918C130.951 21.0719 130.253 19.6969 129.013 18.6656C127.771 17.6343 126.176 17.1187 124.227 17.1187C122.469 17.1187 120.989 17.6343 119.786 18.6656C118.583 19.6969 117.77 21.0731 117.351 22.7918H131.104Z" fill="white"/>
<path d="M152.078 40.2142H143.998V11.0437H152.078V13.6231C153.377 12.6301 154.848 11.8567 156.491 11.3027C158.133 10.7499 159.873 10.4712 161.707 10.4712C163.541 10.4712 165.345 10.7673 166.893 11.3596C168.44 11.9531 169.758 12.7834 170.848 13.853C171.937 14.9226 172.777 16.2128 173.369 17.7214C173.961 19.2312 174.257 20.9221 174.257 22.793V40.2154H166.234V23.2517C166.234 21.3808 165.698 19.9187 164.629 18.8677C163.559 17.8167 162.069 17.2917 160.159 17.2917C157.637 17.2917 155.66 18.1035 154.227 19.7271C152.794 21.3518 152.077 23.5583 152.077 26.3467V40.2154L152.078 40.2142Z" fill="white"/>
<path d="M191.125 40.3617H182.866V30.193L182.854 29.3824V17.7481H177.696V11.0426H182.854V2.96198H190.934V11.0426H198.9V17.7481H190.934V29.2094L191.125 40.3605V40.3617Z" fill="white"/>
<path d="M224.46 11.0437L224.001 17.9212C223.58 17.8062 222.997 17.7121 222.253 17.6343C221.508 17.5577 220.829 17.5194 220.218 17.5194C217.697 17.5194 215.777 18.1976 214.459 19.554C213.141 20.9105 212.482 22.7547 212.482 25.0843V40.2142H204.401V11.0437H212.482V13.68C213.436 12.687 214.592 11.9031 215.949 11.3306C217.305 10.7569 218.748 10.4712 220.276 10.4712C220.887 10.4712 221.575 10.52 222.34 10.614C223.104 10.7093 223.81 10.8533 224.461 11.0437H224.46Z" fill="white"/>
<path d="M257.47 11.0437V40.2142H249.389V38.0936C248.28 38.9344 247.01 39.5941 245.577 40.0702C244.144 40.5475 242.606 40.7868 240.963 40.7868C238.786 40.7868 236.799 40.414 235.003 39.6696C233.207 38.924 231.66 37.8741 230.362 36.5177C229.062 35.1624 228.049 33.5574 227.323 31.7039C226.598 29.8516 226.235 27.8169 226.235 25.5999C226.235 23.3829 226.598 21.4075 227.323 19.554C228.049 17.7017 229.062 16.0967 230.362 14.7403C231.66 13.385 233.217 12.3328 235.032 11.5884C236.846 10.8428 238.824 10.4712 240.963 10.4712C242.606 10.4712 244.144 10.7104 245.577 11.1877C247.01 11.6662 248.28 12.3247 249.389 13.1643V11.0437H257.47ZM241.996 17.2906C239.741 17.2906 237.945 18.0454 236.608 19.554C235.271 21.0638 234.603 23.0787 234.603 25.5999C234.603 28.1212 235.262 30.1559 236.581 31.7039C237.899 33.2508 239.703 34.0255 241.996 34.0255C244.288 34.0255 245.987 33.252 247.325 31.7039C248.662 30.157 249.331 28.1224 249.331 25.5999C249.331 23.0775 248.662 21.0638 247.325 19.554C245.987 18.0454 244.211 17.2906 241.996 17.2906Z" fill="white"/>
<path d="M23.0848 32.7375C23.086 32.4855 23.2788 32.2765 23.5297 32.2544C25.8721 32.0465 27.6826 31.1895 28.9577 29.6832C30.435 27.9366 31.1759 24.9868 31.1759 20.8338C31.1759 16.6809 30.3328 13.7136 28.6488 11.924C26.9626 10.1356 24.6596 9.2425 21.7412 9.2425L11.1765 9.06016C10.9036 9.05551 10.6794 9.27501 10.6794 9.54793V17.1245C10.6794 17.3916 10.4646 17.6099 10.1963 17.6123L1.02409 17.7156C0.752333 17.7191 0.530518 17.4996 0.530518 17.2279V1.28268C0.530518 1.01325 0.748858 0.794922 1.01829 0.794922H23.2834C26.613 0.794922 29.4583 1.29894 31.8216 2.30582C34.1849 3.31387 36.1069 4.71211 37.5876 6.49825C39.0683 8.28671 40.1472 10.405 40.8243 12.8508C41.5037 15.2965 41.8428 17.9595 41.8428 20.8338C41.8428 23.7081 41.4735 26.3641 40.7337 28.7901C39.9939 31.2162 38.8419 33.3217 37.2787 35.1101C35.7179 36.8963 33.7332 38.2968 31.3303 39.3026C29.2806 40.162 26.3703 40.7252 23.561 40.8599C23.28 40.8739 23.0442 40.6509 23.0454 40.3699L23.0837 32.7375H23.0848ZM11.7653 35.8859L10.8339 17.7981Z" fill="white"/>
<path d="M18.3327 32.3647C18.6021 32.3647 18.8204 32.5831 18.8204 32.8525V40.2746C18.8204 40.544 18.6021 40.7624 18.3327 40.7624H10.9106C10.6411 40.7624 10.4228 40.544 10.4228 40.2746V33.8977L10.4321 33.8211C10.4031 32.5784 9.65167 32.4205 9.32418 32.41L9.25682 32.4077H1.14605C0.876616 32.4077 0.658276 32.1894 0.658276 31.92V22.3377C0.658276 22.0683 0.876616 21.85 1.14605 21.85H10.7282C10.9977 21.85 11.216 22.0683 11.216 22.3377V31.0931C11.216 31.0931 11.0488 32.3287 12.6247 32.3647H18.3327Z" fill="white"/>
</svg>
