<svg width="66" height="66" viewBox="0 0 66 66" fill="none" xmlns="http://www.w3.org/2000/svg">
<g filter="url(#filter0_d_965_415)">
<g clip-path="url(#clip0_965_415)">
<path d="M13 19C13 15.6863 15.6863 13 19 13H47C50.3137 13 53 15.6863 53 19V47C53 50.3137 50.3137 53 47 53H19C15.6863 53 13 50.3137 13 47V19Z" fill="white" fill-opacity="0.8" shape-rendering="crispEdges"/>
<path d="M31.4444 46.615L20.5556 40.98C20.063 40.7233 19.6806 40.385 19.4083 39.965C19.1361 39.545 19 39.0783 19 38.565V27.435C19 26.9217 19.1361 26.455 19.4083 26.035C19.6806 25.615 20.063 25.2767 20.5556 25.02L31.4444 19.385C31.937 19.1283 32.4556 19 33 19C33.5444 19 34.063 19.1283 34.5556 19.385L45.4444 25.02C45.937 25.2767 46.3194 25.615 46.5917 26.035C46.8639 26.455 47 26.9217 47 27.435V38.565C47 39.0783 46.8639 39.545 46.5917 39.965C46.3194 40.385 45.937 40.7233 45.4444 40.98L34.5556 46.615C34.063 46.8717 33.5444 47 33 47C32.4556 47 31.937 46.8717 31.4444 46.615ZM33 44.2L34.5556 43.395V33.805L43.8889 28.94V27.47L42.2167 26.595L33 31.39L23.7833 26.595L22.1111 27.47V28.94L31.4444 33.805V43.395L33 44.2Z" fill="#1E1334"/>
</g>
<path d="M19 13.25H47C50.1756 13.25 52.75 15.8244 52.75 19V47C52.75 50.1756 50.1756 52.75 47 52.75H19C15.8244 52.75 13.25 50.1756 13.25 47V19C13.25 15.8244 15.8244 13.25 19 13.25Z" stroke="#C2A8FF" stroke-width="0.5" shape-rendering="crispEdges"/>
</g>
<defs>
<filter id="filter0_d_965_415" x="0" y="0" width="66" height="66" filterUnits="userSpaceOnUse" color-interpolation-filters="sRGB">
<feFlood flood-opacity="0" result="BackgroundImageFix"/>
<feColorMatrix in="SourceAlpha" type="matrix" values="0 0 0 0 0 0 0 0 0 0 0 0 0 0 0 0 0 0 127 0" result="hardAlpha"/>
<feOffset/>
<feGaussianBlur stdDeviation="6.5"/>
<feComposite in2="hardAlpha" operator="out"/>
<feColorMatrix type="matrix" values="0 0 0 0 0.860412 0 0 0 0 0.796718 0 0 0 0 0.989126 0 0 0 0.4 0"/>
<feBlend mode="normal" in2="BackgroundImageFix" result="effect1_dropShadow_965_415"/>
<feBlend mode="normal" in="SourceGraphic" in2="effect1_dropShadow_965_415" result="shape"/>
</filter>
<clipPath id="clip0_965_415">
<path d="M13 19C13 15.6863 15.6863 13 19 13H47C50.3137 13 53 15.6863 53 19V47C53 50.3137 50.3137 53 47 53H19C15.6863 53 13 50.3137 13 47V19Z" fill="white"/>
</clipPath>
</defs>
</svg>
