<svg width="66" height="66" viewBox="0 0 66 66" fill="none" xmlns="http://www.w3.org/2000/svg">
<g filter="url(#filter0_d_965_414)">
<g clip-path="url(#clip0_965_414)">
<path d="M13 19C13 15.6863 15.6863 13 19 13H47C50.3137 13 53 15.6863 53 19V47C53 50.3137 50.3137 53 47 53H19C15.6863 53 13 50.3137 13 47V19Z" fill="white" fill-opacity="0.8" shape-rendering="crispEdges"/>
<path d="M41.4012 22.458C41.2856 22.458 41.17 22.43 41.0689 22.374C38.295 20.988 35.8967 20.4 33.0217 20.4C30.1611 20.4 27.445 21.058 24.9745 22.374C24.6277 22.556 24.1943 22.43 23.992 22.094C23.8042 21.758 23.9343 21.324 24.281 21.142C26.9682 19.728 29.9155 19 33.0217 19C36.099 19 38.7862 19.658 41.7335 21.128C42.0946 21.31 42.2247 21.73 42.0368 22.066C41.9068 22.318 41.6612 22.458 41.4012 22.458ZM20.7269 29.808C20.5825 29.808 20.438 29.766 20.308 29.682C19.9757 29.458 19.9034 29.024 20.1346 28.702C21.5649 26.742 23.3853 25.202 25.5524 24.124C30.0888 21.856 35.8967 21.842 40.4476 24.11C42.6147 25.188 44.4351 26.714 45.8654 28.66C46.0966 28.968 46.0243 29.416 45.692 29.64C45.3598 29.864 44.9119 29.794 44.6807 29.472C43.3805 27.708 41.7335 26.322 39.7831 25.356C35.6367 23.298 30.3345 23.298 26.2025 25.37C24.2377 26.35 22.5906 27.75 21.2904 29.514C21.1748 29.71 20.9581 29.808 20.7269 29.808ZM29.7566 46.706C29.5687 46.706 29.3809 46.636 29.2509 46.496C27.994 45.278 27.3149 44.494 26.347 42.8C25.3501 41.078 24.83 38.978 24.83 36.724C24.83 32.566 28.4996 29.178 33.0072 29.178C37.5148 29.178 41.1845 32.566 41.1845 36.724C41.1845 37.116 40.8666 37.424 40.4621 37.424C40.0576 37.424 39.7397 37.116 39.7397 36.724C39.7397 33.336 36.7202 30.578 33.0072 30.578C29.2942 30.578 26.2747 33.336 26.2747 36.724C26.2747 38.74 26.7371 40.602 27.6183 42.114C28.543 43.724 29.1787 44.41 30.2911 45.502C30.5656 45.782 30.5656 46.216 30.2911 46.496C30.1322 46.636 29.9444 46.706 29.7566 46.706ZM40.1153 44.116C38.3961 44.116 36.8791 43.696 35.6367 42.87C33.484 41.456 32.1982 39.16 32.1982 36.724C32.1982 36.332 32.516 36.024 32.9205 36.024C33.3251 36.024 33.6429 36.332 33.6429 36.724C33.6429 38.698 34.6831 40.56 36.4457 41.708C37.4715 42.38 38.6706 42.702 40.1153 42.702C40.4621 42.702 41.04 42.66 41.6179 42.562C42.008 42.492 42.3836 42.744 42.4558 43.136C42.5281 43.514 42.268 43.878 41.8635 43.948C41.04 44.102 40.3176 44.116 40.1153 44.116ZM37.2114 47C37.1536 47 37.0814 46.986 37.0236 46.972C34.7265 46.356 33.2239 45.53 31.6492 44.032C29.6265 42.086 28.5141 39.496 28.5141 36.724C28.5141 34.456 30.5078 32.608 32.9639 32.608C35.4199 32.608 37.4137 34.456 37.4137 36.724C37.4137 38.222 38.7573 39.44 40.4187 39.44C42.0802 39.44 43.4238 38.222 43.4238 36.724C43.4238 31.446 38.7284 27.162 32.9494 27.162C28.8464 27.162 25.09 29.374 23.3997 32.804C22.8363 33.938 22.5473 35.268 22.5473 36.724C22.5473 37.816 22.6484 39.538 23.5153 41.778C23.6598 42.142 23.4719 42.548 23.0963 42.674C22.7207 42.814 22.3017 42.618 22.1717 42.268C21.4638 40.434 21.117 38.614 21.117 36.724C21.117 35.044 21.4493 33.518 22.0994 32.188C24.0209 28.282 28.2829 25.748 32.9494 25.748C39.523 25.748 44.8685 30.662 44.8685 36.71C44.8685 38.978 42.8748 40.826 40.4187 40.826C37.9627 40.826 35.9689 38.978 35.9689 36.71C35.9689 35.212 34.6253 33.994 32.9639 33.994C31.3024 33.994 29.9588 35.212 29.9588 36.71C29.9588 39.104 30.9124 41.344 32.6605 43.024C34.033 44.34 35.3477 45.068 37.3848 45.614C37.7749 45.712 37.9916 46.104 37.8904 46.468C37.8182 46.79 37.5148 47 37.2114 47Z" fill="#1E1334"/>
</g>
<path d="M19 13.25H47C50.1756 13.25 52.75 15.8244 52.75 19V47C52.75 50.1756 50.1756 52.75 47 52.75H19C15.8244 52.75 13.25 50.1756 13.25 47V19C13.25 15.8244 15.8244 13.25 19 13.25Z" stroke="#C2A8FF" stroke-width="0.5" shape-rendering="crispEdges"/>
</g>
<defs>
<filter id="filter0_d_965_414" x="0" y="0" width="66" height="66" filterUnits="userSpaceOnUse" color-interpolation-filters="sRGB">
<feFlood flood-opacity="0" result="BackgroundImageFix"/>
<feColorMatrix in="SourceAlpha" type="matrix" values="0 0 0 0 0 0 0 0 0 0 0 0 0 0 0 0 0 0 127 0" result="hardAlpha"/>
<feOffset/>
<feGaussianBlur stdDeviation="6.5"/>
<feComposite in2="hardAlpha" operator="out"/>
<feColorMatrix type="matrix" values="0 0 0 0 0.860412 0 0 0 0 0.796718 0 0 0 0 0.989126 0 0 0 0.4 0"/>
<feBlend mode="normal" in2="BackgroundImageFix" result="effect1_dropShadow_965_414"/>
<feBlend mode="normal" in="SourceGraphic" in2="effect1_dropShadow_965_414" result="shape"/>
</filter>
<clipPath id="clip0_965_414">
<path d="M13 19C13 15.6863 15.6863 13 19 13H47C50.3137 13 53 15.6863 53 19V47C53 50.3137 50.3137 53 47 53H19C15.6863 53 13 50.3137 13 47V19Z" fill="white"/>
</clipPath>
</defs>
</svg>
