<svg width="66" height="66" viewBox="0 0 66 66" fill="none" xmlns="http://www.w3.org/2000/svg">
<g filter="url(#filter0_d_965_421)">
<g clip-path="url(#clip0_965_421)">
<path d="M13 19C13 15.6863 15.6863 13 19 13H47C50.3137 13 53 15.6863 53 19V47C53 50.3137 50.3137 53 47 53H19C15.6863 53 13 50.3137 13 47V19Z" fill="white" fill-opacity="0.8" shape-rendering="crispEdges"/>
<path d="M24.0909 34.8356V41.0578L33 47L41.9091 41.0578V34.8356L33 40.7778L24.0909 34.8356ZM33 19L19 28.3333L33 37.6667L44.4545 30.0289V40.7778H47V28.3333L33 19Z" fill="#1E1334"/>
</g>
<path d="M19 13.25H47C50.1756 13.25 52.75 15.8244 52.75 19V47C52.75 50.1756 50.1756 52.75 47 52.75H19C15.8244 52.75 13.25 50.1756 13.25 47V19C13.25 15.8244 15.8244 13.25 19 13.25Z" stroke="#C2A8FF" stroke-width="0.5" shape-rendering="crispEdges"/>
</g>
<defs>
<filter id="filter0_d_965_421" x="0" y="0" width="66" height="66" filterUnits="userSpaceOnUse" color-interpolation-filters="sRGB">
<feFlood flood-opacity="0" result="BackgroundImageFix"/>
<feColorMatrix in="SourceAlpha" type="matrix" values="0 0 0 0 0 0 0 0 0 0 0 0 0 0 0 0 0 0 127 0" result="hardAlpha"/>
<feOffset/>
<feGaussianBlur stdDeviation="6.5"/>
<feComposite in2="hardAlpha" operator="out"/>
<feColorMatrix type="matrix" values="0 0 0 0 0.860412 0 0 0 0 0.796718 0 0 0 0 0.989126 0 0 0 0.4 0"/>
<feBlend mode="normal" in2="BackgroundImageFix" result="effect1_dropShadow_965_421"/>
<feBlend mode="normal" in="SourceGraphic" in2="effect1_dropShadow_965_421" result="shape"/>
</filter>
<clipPath id="clip0_965_421">
<path d="M13 19C13 15.6863 15.6863 13 19 13H47C50.3137 13 53 15.6863 53 19V47C53 50.3137 50.3137 53 47 53H19C15.6863 53 13 50.3137 13 47V19Z" fill="white"/>
</clipPath>
</defs>
</svg>
