<svg width="66" height="66" viewBox="0 0 66 66" fill="none" xmlns="http://www.w3.org/2000/svg">
<g filter="url(#filter0_d_965_418)">
<g clip-path="url(#clip0_965_418)">
<path d="M13 19C13 15.6863 15.6863 13 19 13H47C50.3137 13 53 15.6863 53 19V47C53 50.3137 50.3137 53 47 53H19C15.6863 53 13 50.3137 13 47V19Z" fill="white" fill-opacity="0.8" shape-rendering="crispEdges"/>
<path d="M33 47C31.0633 47 29.2433 46.6325 27.54 45.8975C25.8367 45.1625 24.355 44.165 23.095 42.905C21.835 41.645 20.8375 40.1633 20.1025 38.46C19.3675 36.7567 19 34.9367 19 33C19 31.0633 19.3675 29.2433 20.1025 27.54C20.8375 25.8367 21.835 24.355 23.095 23.095C24.355 21.835 25.8367 20.8375 27.54 20.1025C29.2433 19.3675 31.0633 19 33 19C34.9367 19 36.7567 19.3675 38.46 20.1025C40.1633 20.8375 41.645 21.835 42.905 23.095C44.165 24.355 45.1625 25.8367 45.8975 27.54C46.6325 29.2433 47 31.0633 47 33C47 34.9367 46.6325 36.7567 45.8975 38.46C45.1625 40.1633 44.165 41.645 42.905 42.905C41.645 44.165 40.1633 45.1625 38.46 45.8975C36.7567 46.6325 34.9367 47 33 47ZM33 44.2C36.1267 44.2 38.775 43.115 40.945 40.945C43.115 38.775 44.2 36.1267 44.2 33C44.2 29.8733 43.115 27.225 40.945 25.055C38.775 22.885 36.1267 21.8 33 21.8C29.8733 21.8 27.225 22.885 25.055 25.055C22.885 27.225 21.8 29.8733 21.8 33C21.8 36.1267 22.885 38.775 25.055 40.945C27.225 43.115 29.8733 44.2 33 44.2ZM33 41.4C30.6667 41.4 28.6833 40.5833 27.05 38.95C25.4167 37.3167 24.6 35.3333 24.6 33C24.6 30.6667 25.4167 28.6833 27.05 27.05C28.6833 25.4167 30.6667 24.6 33 24.6C35.3333 24.6 37.3167 25.4167 38.95 27.05C40.5833 28.6833 41.4 30.6667 41.4 33C41.4 35.3333 40.5833 37.3167 38.95 38.95C37.3167 40.5833 35.3333 41.4 33 41.4ZM33 38.6C34.54 38.6 35.8583 38.0517 36.955 36.955C38.0517 35.8583 38.6 34.54 38.6 33C38.6 31.46 38.0517 30.1417 36.955 29.045C35.8583 27.9483 34.54 27.4 33 27.4C31.46 27.4 30.1417 27.9483 29.045 29.045C27.9483 30.1417 27.4 31.46 27.4 33C27.4 34.54 27.9483 35.8583 29.045 36.955C30.1417 38.0517 31.46 38.6 33 38.6ZM33 35.8C32.23 35.8 31.5708 35.5258 31.0225 34.9775C30.4742 34.4292 30.2 33.77 30.2 33C30.2 32.23 30.4742 31.5708 31.0225 31.0225C31.5708 30.4742 32.23 30.2 33 30.2C33.77 30.2 34.4292 30.4742 34.9775 31.0225C35.5258 31.5708 35.8 32.23 35.8 33C35.8 33.77 35.5258 34.4292 34.9775 34.9775C34.4292 35.5258 33.77 35.8 33 35.8Z" fill="#1E1334"/>
</g>
<path d="M19 13.25H47C50.1756 13.25 52.75 15.8244 52.75 19V47C52.75 50.1756 50.1756 52.75 47 52.75H19C15.8244 52.75 13.25 50.1756 13.25 47V19C13.25 15.8244 15.8244 13.25 19 13.25Z" stroke="#C2A8FF" stroke-width="0.5" shape-rendering="crispEdges"/>
</g>
<defs>
<filter id="filter0_d_965_418" x="0" y="0" width="66" height="66" filterUnits="userSpaceOnUse" color-interpolation-filters="sRGB">
<feFlood flood-opacity="0" result="BackgroundImageFix"/>
<feColorMatrix in="SourceAlpha" type="matrix" values="0 0 0 0 0 0 0 0 0 0 0 0 0 0 0 0 0 0 127 0" result="hardAlpha"/>
<feOffset/>
<feGaussianBlur stdDeviation="6.5"/>
<feComposite in2="hardAlpha" operator="out"/>
<feColorMatrix type="matrix" values="0 0 0 0 0.860412 0 0 0 0 0.796718 0 0 0 0 0.989126 0 0 0 0.4 0"/>
<feBlend mode="normal" in2="BackgroundImageFix" result="effect1_dropShadow_965_418"/>
<feBlend mode="normal" in="SourceGraphic" in2="effect1_dropShadow_965_418" result="shape"/>
</filter>
<clipPath id="clip0_965_418">
<path d="M13 19C13 15.6863 15.6863 13 19 13H47C50.3137 13 53 15.6863 53 19V47C53 50.3137 50.3137 53 47 53H19C15.6863 53 13 50.3137 13 47V19Z" fill="white"/>
</clipPath>
</defs>
</svg>
